<?xml version="1.0" encoding="utf-8"?>
<svg version="1.1" xmlns:xlink="http://www.w3.org/1999/xlink" width="16px" height="16px" viewBox="1064 539  16 16" xmlns="http://www.w3.org/2000/svg">
  <path d="M 1072 539  C 1076.48 539  1080 542.52  1080 547  C 1080 551.48  1076.48 555  1072 555  C 1067.52 555  1064 551.48  1064 547  C 1064 542.52  1067.52 539  1072 539  Z " fill-rule="nonzero" fill="#f0f0f0" stroke="none" />
  <path d="M 1072 539.5  C 1076.2 539.5  1079.5 542.8  1079.5 547  C 1079.5 551.2  1076.2 554.5  1072 554.5  C 1067.8 554.5  1064.5 551.2  1064.5 547  C 1064.5 542.8  1067.8 539.5  1072 539.5  Z " stroke-width="1" stroke="#8c8c8c" fill="none" />
  <path d="M 1072 551  C 1069.76 551  1068 549.24  1068 547  C 1068 544.76  1069.76 543  1072 543  C 1074.24 543  1076 544.76  1076 547  C 1076 549.24  1074.24 551  1072 551  " fill-rule="nonzero" fill="#8c8c8c" stroke="none" />
</svg>