<?xml version="1.0" encoding="utf-8"?>
<svg version="1.1" xmlns:xlink="http://www.w3.org/1999/xlink" width="16px" height="16px" viewBox="1064 569  16 16" xmlns="http://www.w3.org/2000/svg">
  <path d="M 1072 569  C 1076.48 569  1080 572.52  1080 577  C 1080 581.48  1076.48 585  1072 585  C 1067.52 585  1064 581.48  1064 577  C 1064 572.52  1067.52 569  1072 569  Z " fill-rule="nonzero" fill="#ffffff" stroke="none" />
  <path d="M 1072 569.5  C 1076.2 569.5  1079.5 572.8  1079.5 577  C 1079.5 581.2  1076.2 584.5  1072 584.5  C 1067.8 584.5  1064.5 581.2  1064.5 577  C 1064.5 572.8  1067.8 569.5  1072 569.5  Z " stroke-width="1" stroke="#8c8c8c" fill="none" />
  <path d="M 1072 581  C 1069.76 581  1068 579.24  1068 577  C 1068 574.76  1069.76 573  1072 573  C 1074.24 573  1076 574.76  1076 577  C 1076 579.24  1074.24 581  1072 581  " fill-rule="nonzero" fill="#8c8c8c" stroke="none" />
</svg>