<?xml version="1.0" encoding="utf-8"?>
<svg version="1.1" xmlns:xlink="http://www.w3.org/1999/xlink" width="306px" height="56px" xmlns="http://www.w3.org/2000/svg">
  <defs>
    <filter x="47px" y="161px" width="306px" height="56px" filterUnits="userSpaceOnUse" id="filter3">
      <feOffset dx="0" dy="0" in="SourceAlpha" result="shadowOffsetInner" />
      <feGaussianBlur stdDeviation="1.5" in="shadowOffsetInner" result="shadowGaussian" />
      <feComposite in2="shadowGaussian" operator="atop" in="SourceAlpha" result="shadowComposite" />
      <feColorMatrix type="matrix" values="0 0 0 0 0  0 0 0 0 0.474509803921569  0 0 0 0 0.996078431372549  0 0 0 0.8 0  " in="shadowComposite" />
    </filter>
    <g id="widget4">
      <path d="M 50.5 167  A 2.5 2.5 0 0 1 53 164.5 L 347 164.5  A 2.5 2.5 0 0 1 349.5 167 L 349.5 211  A 2.5 2.5 0 0 1 347 213.5 L 53 213.5  A 2.5 2.5 0 0 1 50.5 211 L 50.5 167  Z " fill-rule="nonzero" fill="#ffffff" stroke="none" />
      <path d="M 50.5 167  A 2.5 2.5 0 0 1 53 164.5 L 347 164.5  A 2.5 2.5 0 0 1 349.5 167 L 349.5 211  A 2.5 2.5 0 0 1 347 213.5 L 53 213.5  A 2.5 2.5 0 0 1 50.5 211 L 50.5 167  Z " stroke-width="1" stroke="#0079fe" fill="none" />
    </g>
  </defs>
  <g transform="matrix(1 0 0 1 -47 -161 )">
    <use xlink:href="#widget4" filter="url(#filter3)" />
    <use xlink:href="#widget4" />
  </g>
</svg>