<?xml version="1.0" encoding="utf-8"?>
<svg version="1.1" xmlns:xlink="http://www.w3.org/1999/xlink" width="300px" height="50px" xmlns="http://www.w3.org/2000/svg">
  <g transform="matrix(1 0 0 1 -50 -164 )">
    <path d="M 50.5 167  A 2.5 2.5 0 0 1 53 164.5 L 347 164.5  A 2.5 2.5 0 0 1 349.5 167 L 349.5 211  A 2.5 2.5 0 0 1 347 213.5 L 53 213.5  A 2.5 2.5 0 0 1 50.5 211 L 50.5 167  Z " fill-rule="nonzero" fill="#ffffff" stroke="none" />
    <path d="M 50.5 167  A 2.5 2.5 0 0 1 53 164.5 L 347 164.5  A 2.5 2.5 0 0 1 349.5 167 L 349.5 211  A 2.5 2.5 0 0 1 347 213.5 L 53 213.5  A 2.5 2.5 0 0 1 50.5 211 L 50.5 167  Z " stroke-width="1" stroke="#0079fe" fill="none" />
  </g>
</svg>