<?xml version="1.0" encoding="utf-8"?>
<svg version="1.1" xmlns:xlink="http://www.w3.org/1999/xlink" width="16px" height="16px" viewBox="1059 737  16 16" xmlns="http://www.w3.org/2000/svg">
  <path d="M 1067 737  C 1071.48 737  1075 740.52  1075 745  C 1075 749.48  1071.48 753  1067 753  C 1062.52 753  1059 749.48  1059 745  C 1059 740.52  1062.52 737  1067 737  Z " fill-rule="nonzero" fill="#ffffff" stroke="none" />
  <path d="M 1067 737.5  C 1071.2 737.5  1074.5 740.8  1074.5 745  C 1074.5 749.2  1071.2 752.5  1067 752.5  C 1062.8 752.5  1059.5 749.2  1059.5 745  C 1059.5 740.8  1062.8 737.5  1067 737.5  Z " stroke-width="1" stroke="#8c8c8c" fill="none" />
  <path d="M 1067 749  C 1064.76 749  1063 747.24  1063 745  C 1063 742.76  1064.76 741  1067 741  C 1069.24 741  1071 742.76  1071 745  C 1071 747.24  1069.24 749  1067 749  " fill-rule="nonzero" fill="#8c8c8c" stroke="none" />
</svg>