<?xml version="1.0" encoding="utf-8"?>
<svg version="1.1" xmlns:xlink="http://www.w3.org/1999/xlink" width="16px" height="16px" viewBox="1059 446  16 16" xmlns="http://www.w3.org/2000/svg">
  <path d="M 1067 446  C 1071.48 446  1075 449.52  1075 454  C 1075 458.48  1071.48 462  1067 462  C 1062.52 462  1059 458.48  1059 454  C 1059 449.52  1062.52 446  1067 446  Z " fill-rule="nonzero" fill="#f0f0f0" stroke="none" />
  <path d="M 1067 446.5  C 1071.2 446.5  1074.5 449.8  1074.5 454  C 1074.5 458.2  1071.2 461.5  1067 461.5  C 1062.8 461.5  1059.5 458.2  1059.5 454  C 1059.5 449.8  1062.8 446.5  1067 446.5  Z " stroke-width="1" stroke="#8c8c8c" fill="none" />
  <path d="M 1067 458  C 1064.76 458  1063 456.24  1063 454  C 1063 451.76  1064.76 450  1067 450  C 1069.24 450  1071 451.76  1071 454  C 1071 456.24  1069.24 458  1067 458  " fill-rule="nonzero" fill="#8c8c8c" stroke="none" />
</svg>