<?xml version="1.0" encoding="utf-8"?>
<svg version="1.1" xmlns:xlink="http://www.w3.org/1999/xlink" width="16px" height="16px" viewBox="1059 508  16 16" xmlns="http://www.w3.org/2000/svg">
  <path d="M 1067 508  C 1071.48 508  1075 511.52  1075 516  C 1075 520.48  1071.48 524  1067 524  C 1062.52 524  1059 520.48  1059 516  C 1059 511.52  1062.52 508  1067 508  Z " fill-rule="nonzero" fill="#f0f0f0" stroke="none" />
  <path d="M 1067 508.5  C 1071.2 508.5  1074.5 511.8  1074.5 516  C 1074.5 520.2  1071.2 523.5  1067 523.5  C 1062.8 523.5  1059.5 520.2  1059.5 516  C 1059.5 511.8  1062.8 508.5  1067 508.5  Z " stroke-width="1" stroke="#8c8c8c" fill="none" />
  <path d="M 1067 520  C 1064.76 520  1063 518.24  1063 516  C 1063 513.76  1064.76 512  1067 512  C 1069.24 512  1071 513.76  1071 516  C 1071 518.24  1069.24 520  1067 520  " fill-rule="nonzero" fill="#8c8c8c" stroke="none" />
</svg>