<?xml version="1.0" encoding="utf-8"?>
<svg version="1.1" xmlns:xlink="http://www.w3.org/1999/xlink" width="16px" height="16px" viewBox="1059 703  16 16" xmlns="http://www.w3.org/2000/svg">
  <path d="M 1067 703  C 1071.48 703  1075 706.52  1075 711  C 1075 715.48  1071.48 719  1067 719  C 1062.52 719  1059 715.48  1059 711  C 1059 706.52  1062.52 703  1067 703  Z " fill-rule="nonzero" fill="#ffffff" stroke="none" />
  <path d="M 1067 703.5  C 1071.2 703.5  1074.5 706.8  1074.5 711  C 1074.5 715.2  1071.2 718.5  1067 718.5  C 1062.8 718.5  1059.5 715.2  1059.5 711  C 1059.5 706.8  1062.8 703.5  1067 703.5  Z " stroke-width="1" stroke="#8c8c8c" fill="none" />
  <path d="M 1067 715  C 1064.76 715  1063 713.24  1063 711  C 1063 708.76  1064.76 707  1067 707  C 1069.24 707  1071 708.76  1071 711  C 1071 713.24  1069.24 715  1067 715  " fill-rule="nonzero" fill="#8c8c8c" stroke="none" />
</svg>