<?xml version="1.0" encoding="utf-8"?>
<svg version="1.1" xmlns:xlink="http://www.w3.org/1999/xlink" width="16px" height="16px" viewBox="1059 476  16 16" xmlns="http://www.w3.org/2000/svg">
  <path d="M 1067 476  C 1071.48 476  1075 479.52  1075 484  C 1075 488.48  1071.48 492  1067 492  C 1062.52 492  1059 488.48  1059 484  C 1059 479.52  1062.52 476  1067 476  Z " fill-rule="nonzero" fill="#f0f0f0" stroke="none" />
  <path d="M 1067 476.5  C 1071.2 476.5  1074.5 479.8  1074.5 484  C 1074.5 488.2  1071.2 491.5  1067 491.5  C 1062.8 491.5  1059.5 488.2  1059.5 484  C 1059.5 479.8  1062.8 476.5  1067 476.5  Z " stroke-width="1" stroke="#8c8c8c" fill="none" />
  <path d="M 1067 488  C 1064.76 488  1063 486.24  1063 484  C 1063 481.76  1064.76 480  1067 480  C 1069.24 480  1071 481.76  1071 484  C 1071 486.24  1069.24 488  1067 488  " fill-rule="nonzero" fill="#8c8c8c" stroke="none" />
</svg>