<?xml version="1.0" encoding="utf-8"?>
<svg version="1.1" xmlns:xlink="http://www.w3.org/1999/xlink" width="16px" height="16px" viewBox="1059 542  16 16" xmlns="http://www.w3.org/2000/svg">
  <path d="M 1067 542  C 1071.48 542  1075 545.52  1075 550  C 1075 554.48  1071.48 558  1067 558  C 1062.52 558  1059 554.48  1059 550  C 1059 545.52  1062.52 542  1067 542  Z " fill-rule="nonzero" fill="#ffffff" stroke="none" />
  <path d="M 1067 542.5  C 1071.2 542.5  1074.5 545.8  1074.5 550  C 1074.5 554.2  1071.2 557.5  1067 557.5  C 1062.8 557.5  1059.5 554.2  1059.5 550  C 1059.5 545.8  1062.8 542.5  1067 542.5  Z " stroke-width="1" stroke="#8c8c8c" fill="none" />
  <path d="M 1067 554  C 1064.76 554  1063 552.24  1063 550  C 1063 547.76  1064.76 546  1067 546  C 1069.24 546  1071 547.76  1071 550  C 1071 552.24  1069.24 554  1067 554  " fill-rule="nonzero" fill="#8c8c8c" stroke="none" />
</svg>