<?xml version="1.0" encoding="utf-8"?>
<svg version="1.1" xmlns:xlink="http://www.w3.org/1999/xlink" width="16px" height="16px" viewBox="1059 671  16 16" xmlns="http://www.w3.org/2000/svg">
  <path d="M 1067 671  C 1071.48 671  1075 674.52  1075 679  C 1075 683.48  1071.48 687  1067 687  C 1062.52 687  1059 683.48  1059 679  C 1059 674.52  1062.52 671  1067 671  Z " fill-rule="nonzero" fill="#f0f0f0" stroke="none" />
  <path d="M 1067 671.5  C 1071.2 671.5  1074.5 674.8  1074.5 679  C 1074.5 683.2  1071.2 686.5  1067 686.5  C 1062.8 686.5  1059.5 683.2  1059.5 679  C 1059.5 674.8  1062.8 671.5  1067 671.5  Z " stroke-width="1" stroke="#8c8c8c" fill="none" />
  <path d="M 1067 683  C 1064.76 683  1063 681.24  1063 679  C 1063 676.76  1064.76 675  1067 675  C 1069.24 675  1071 676.76  1071 679  C 1071 681.24  1069.24 683  1067 683  " fill-rule="nonzero" fill="#8c8c8c" stroke="none" />
</svg>