<?xml version="1.0" encoding="utf-8"?>
<svg version="1.1" xmlns:xlink="http://www.w3.org/1999/xlink" width="16px" height="16px" viewBox="129 328  16 16" xmlns="http://www.w3.org/2000/svg">
  <path d="M 137 328  C 141.48 328  145 331.52  145 336  C 145 340.48  141.48 344  137 344  C 132.52 344  129 340.48  129 336  C 129 331.52  132.52 328  137 328  Z " fill-rule="nonzero" fill="#ffffff" stroke="none" />
  <path d="M 137 328.5  C 141.2 328.5  144.5 331.8  144.5 336  C 144.5 340.2  141.2 343.5  137 343.5  C 132.8 343.5  129.5 340.2  129.5 336  C 129.5 331.8  132.8 328.5  137 328.5  Z " stroke-width="1" stroke="#8c8c8c" fill="none" />
  <path d="M 137 340  C 134.76 340  133 338.24  133 336  C 133 333.76  134.76 332  137 332  C 139.24 332  141 333.76  141 336  C 141 338.24  139.24 340  137 340  " fill-rule="nonzero" fill="#8c8c8c" stroke="none" />
</svg>