<?xml version="1.0" encoding="utf-8"?>
<svg version="1.1" xmlns:xlink="http://www.w3.org/1999/xlink" width="16px" height="16px" viewBox="184 171  16 16" xmlns="http://www.w3.org/2000/svg">
  <path d="M 192 171  C 196.48 171  200 174.52  200 179  C 200 183.48  196.48 187  192 187  C 187.52 187  184 183.48  184 179  C 184 174.52  187.52 171  192 171  Z " fill-rule="nonzero" fill="#f0f0f0" stroke="none" />
  <path d="M 192 171.5  C 196.2 171.5  199.5 174.8  199.5 179  C 199.5 183.2  196.2 186.5  192 186.5  C 187.8 186.5  184.5 183.2  184.5 179  C 184.5 174.8  187.8 171.5  192 171.5  Z " stroke-width="1" stroke="#8c8c8c" fill="none" />
  <path d="M 192 183  C 189.76 183  188 181.24  188 179  C 188 176.76  189.76 175  192 175  C 194.24 175  196 176.76  196 179  C 196 181.24  194.24 183  192 183  " fill-rule="nonzero" fill="#8c8c8c" stroke="none" />
</svg>