<?xml version="1.0" encoding="utf-8"?>
<svg version="1.1" xmlns:xlink="http://www.w3.org/1999/xlink" width="16px" height="16px" viewBox="220 327  16 16" xmlns="http://www.w3.org/2000/svg">
  <path d="M 228 327  C 232.48 327  236 330.52  236 335  C 236 339.48  232.48 343  228 343  C 223.52 343  220 339.48  220 335  C 220 330.52  223.52 327  228 327  Z " fill-rule="nonzero" fill="#ffffff" stroke="none" />
  <path d="M 228 327.5  C 232.2 327.5  235.5 330.8  235.5 335  C 235.5 339.2  232.2 342.5  228 342.5  C 223.8 342.5  220.5 339.2  220.5 335  C 220.5 330.8  223.8 327.5  228 327.5  Z " stroke-width="1" stroke="#8c8c8c" fill="none" />
  <path d="M 228 339  C 225.76 339  224 337.24  224 335  C 224 332.76  225.76 331  228 331  C 230.24 331  232 332.76  232 335  C 232 337.24  230.24 339  228 339  " fill-rule="nonzero" fill="#8c8c8c" stroke="none" />
</svg>