<?xml version="1.0" encoding="utf-8"?>
<svg version="1.1" xmlns:xlink="http://www.w3.org/1999/xlink" width="16px" height="16px" viewBox="1064 612  16 16" xmlns="http://www.w3.org/2000/svg">
  <path d="M 1072 612  C 1076.48 612  1080 615.52  1080 620  C 1080 624.48  1076.48 628  1072 628  C 1067.52 628  1064 624.48  1064 620  C 1064 615.52  1067.52 612  1072 612  Z " fill-rule="nonzero" fill="#f0f0f0" stroke="none" />
  <path d="M 1072 612.5  C 1076.2 612.5  1079.5 615.8  1079.5 620  C 1079.5 624.2  1076.2 627.5  1072 627.5  C 1067.8 627.5  1064.5 624.2  1064.5 620  C 1064.5 615.8  1067.8 612.5  1072 612.5  Z " stroke-width="1" stroke="#8c8c8c" fill="none" />
  <path d="M 1072 624  C 1069.76 624  1068 622.24  1068 620  C 1068 617.76  1069.76 616  1072 616  C 1074.24 616  1076 617.76  1076 620  C 1076 622.24  1074.24 624  1072 624  " fill-rule="nonzero" fill="#8c8c8c" stroke="none" />
</svg>