<?xml version="1.0" encoding="utf-8"?>
<svg version="1.1" xmlns:xlink="http://www.w3.org/1999/xlink" width="16px" height="16px" viewBox="1064 580  16 16" xmlns="http://www.w3.org/2000/svg">
  <path d="M 1072 580  C 1076.48 580  1080 583.52  1080 588  C 1080 592.48  1076.48 596  1072 596  C 1067.52 596  1064 592.48  1064 588  C 1064 583.52  1067.52 580  1072 580  Z " fill-rule="nonzero" fill="#ffffff" stroke="none" />
  <path d="M 1072 580.5  C 1076.2 580.5  1079.5 583.8  1079.5 588  C 1079.5 592.2  1076.2 595.5  1072 595.5  C 1067.8 595.5  1064.5 592.2  1064.5 588  C 1064.5 583.8  1067.8 580.5  1072 580.5  Z " stroke-width="1" stroke="#8c8c8c" fill="none" />
  <path d="M 1072 592  C 1069.76 592  1068 590.24  1068 588  C 1068 585.76  1069.76 584  1072 584  C 1074.24 584  1076 585.76  1076 588  C 1076 590.24  1074.24 592  1072 592  " fill-rule="nonzero" fill="#8c8c8c" stroke="none" />
</svg>