<?xml version="1.0" encoding="utf-8"?>
<svg version="1.1" xmlns:xlink="http://www.w3.org/1999/xlink" width="16px" height="16px" viewBox="1064 550  16 16" xmlns="http://www.w3.org/2000/svg">
  <path d="M 1072 550  C 1076.48 550  1080 553.52  1080 558  C 1080 562.48  1076.48 566  1072 566  C 1067.52 566  1064 562.48  1064 558  C 1064 553.52  1067.52 550  1072 550  Z " fill-rule="nonzero" fill="#ffffff" stroke="none" />
  <path d="M 1072 550.5  C 1076.2 550.5  1079.5 553.8  1079.5 558  C 1079.5 562.2  1076.2 565.5  1072 565.5  C 1067.8 565.5  1064.5 562.2  1064.5 558  C 1064.5 553.8  1067.8 550.5  1072 550.5  Z " stroke-width="1" stroke="#8c8c8c" fill="none" />
  <path d="M 1072 562  C 1069.76 562  1068 560.24  1068 558  C 1068 555.76  1069.76 554  1072 554  C 1074.24 554  1076 555.76  1076 558  C 1076 560.24  1074.24 562  1072 562  " fill-rule="nonzero" fill="#8c8c8c" stroke="none" />
</svg>