<?xml version="1.0" encoding="utf-8"?>
<svg version="1.1" xmlns:xlink="http://www.w3.org/1999/xlink" width="16px" height="16px" viewBox="1037 108  16 16" xmlns="http://www.w3.org/2000/svg">
  <path d="M 1045 108  C 1049.48 108  1053 111.52  1053 116  C 1053 120.48  1049.48 124  1045 124  C 1040.52 124  1037 120.48  1037 116  C 1037 111.52  1040.52 108  1045 108  Z " fill-rule="nonzero" fill="#f0f0f0" stroke="none" />
  <path d="M 1045 108.5  C 1049.2 108.5  1052.5 111.8  1052.5 116  C 1052.5 120.2  1049.2 123.5  1045 123.5  C 1040.8 123.5  1037.5 120.2  1037.5 116  C 1037.5 111.8  1040.8 108.5  1045 108.5  Z " stroke-width="1" stroke="#8c8c8c" fill="none" />
  <path d="M 1045 120  C 1042.76 120  1041 118.24  1041 116  C 1041 113.76  1042.76 112  1045 112  C 1047.24 112  1049 113.76  1049 116  C 1049 118.24  1047.24 120  1045 120  " fill-rule="nonzero" fill="#8c8c8c" stroke="none" />
</svg>