<?xml version="1.0" encoding="utf-8"?>
<svg version="1.1" xmlns:xlink="http://www.w3.org/1999/xlink" width="16px" height="16px" viewBox="1037 140  16 16" xmlns="http://www.w3.org/2000/svg">
  <path d="M 1045 140  C 1049.48 140  1053 143.52  1053 148  C 1053 152.48  1049.48 156  1045 156  C 1040.52 156  1037 152.48  1037 148  C 1037 143.52  1040.52 140  1045 140  Z " fill-rule="nonzero" fill="#ffffff" stroke="none" />
  <path d="M 1045 140.5  C 1049.2 140.5  1052.5 143.8  1052.5 148  C 1052.5 152.2  1049.2 155.5  1045 155.5  C 1040.8 155.5  1037.5 152.2  1037.5 148  C 1037.5 143.8  1040.8 140.5  1045 140.5  Z " stroke-width="1" stroke="#8c8c8c" fill="none" />
  <path d="M 1045 152  C 1042.76 152  1041 150.24  1041 148  C 1041 145.76  1042.76 144  1045 144  C 1047.24 144  1049 145.76  1049 148  C 1049 150.24  1047.24 152  1045 152  " fill-rule="nonzero" fill="#8c8c8c" stroke="none" />
</svg>