<?xml version="1.0" encoding="utf-8"?>
<svg version="1.1" xmlns:xlink="http://www.w3.org/1999/xlink" width="16px" height="16px" viewBox="1037 174  16 16" xmlns="http://www.w3.org/2000/svg">
  <path d="M 1045 174  C 1049.48 174  1053 177.52  1053 182  C 1053 186.48  1049.48 190  1045 190  C 1040.52 190  1037 186.48  1037 182  C 1037 177.52  1040.52 174  1045 174  Z " fill-rule="nonzero" fill="#f0f0f0" stroke="none" />
  <path d="M 1045 174.5  C 1049.2 174.5  1052.5 177.8  1052.5 182  C 1052.5 186.2  1049.2 189.5  1045 189.5  C 1040.8 189.5  1037.5 186.2  1037.5 182  C 1037.5 177.8  1040.8 174.5  1045 174.5  Z " stroke-width="1" stroke="#8c8c8c" fill="none" />
  <path d="M 1045 186  C 1042.76 186  1041 184.24  1041 182  C 1041 179.76  1042.76 178  1045 178  C 1047.24 178  1049 179.76  1049 182  C 1049 184.24  1047.24 186  1045 186  " fill-rule="nonzero" fill="#8c8c8c" stroke="none" />
</svg>