<?xml version="1.0" encoding="utf-8"?>
<svg version="1.1" xmlns:xlink="http://www.w3.org/1999/xlink" width="16px" height="16px" viewBox="1037 78  16 16" xmlns="http://www.w3.org/2000/svg">
  <path d="M 1045 78  C 1049.48 78  1053 81.52  1053 86  C 1053 90.48  1049.48 94  1045 94  C 1040.52 94  1037 90.48  1037 86  C 1037 81.52  1040.52 78  1045 78  Z " fill-rule="nonzero" fill="#f0f0f0" stroke="none" />
  <path d="M 1045 78.5  C 1049.2 78.5  1052.5 81.8  1052.5 86  C 1052.5 90.2  1049.2 93.5  1045 93.5  C 1040.8 93.5  1037.5 90.2  1037.5 86  C 1037.5 81.8  1040.8 78.5  1045 78.5  Z " stroke-width="1" stroke="#8c8c8c" fill="none" />
  <path d="M 1045 90  C 1042.76 90  1041 88.24  1041 86  C 1041 83.76  1042.76 82  1045 82  C 1047.24 82  1049 83.76  1049 86  C 1049 88.24  1047.24 90  1045 90  " fill-rule="nonzero" fill="#8c8c8c" stroke="none" />
</svg>