<?xml version="1.0" encoding="utf-8"?>
<svg version="1.1" xmlns:xlink="http://www.w3.org/1999/xlink" width="15px" height="15px" xmlns="http://www.w3.org/2000/svg">
  <g transform="matrix(1 0 0 1 -15 -28 )">
    <path d="M 10.4799107142857 13.1961495535714  C 11.4006696428571 12.7078683035714  12.1568080357143 12.0452008928571  12.7483258928571 11.2081473214286  C 12.6255580357143 10.3431919642857  12.3814174107143 9.62472098214286  12.0159040178571 9.052734375  C 11.650390625 8.48074776785714  11.1356026785714 8.15011160714286  10.4715401785714 8.06082589285714  C 10.09765625 8.47377232142857  9.65262276785714 8.79603794642857  9.13643973214286 9.02762276785714  C 8.62025669642857 9.25920758928571  8.07477678571429 9.375  7.5 9.375  C 6.92522321428571 9.375  6.37974330357143 9.25920758928571  5.86356026785714 9.02762276785714  C 5.34737723214286 8.79603794642857  4.90234375 8.47377232142857  4.52845982142857 8.06082589285714  C 3.86439732142857 8.15011160714286  3.349609375 8.48074776785714  2.98409598214286 9.052734375  C 2.61858258928571 9.62472098214286  2.37444196428571 10.3431919642857  2.25167410714286 11.2081473214286  C 2.84319196428571 12.0452008928571  3.59933035714286 12.7078683035714  4.52008928571429 13.1961495535714  C 5.44084821428571 13.6844308035714  6.43415178571429 13.9285714285714  7.5 13.9285714285714  C 8.56584821428572 13.9285714285714  9.55915178571428 13.6844308035714  10.4799107142857 13.1961495535714  Z M 9.77260044642857 7.62974330357143  C 10.400390625 7.001953125  10.7142857142857 6.24441964285714  10.7142857142857 5.35714285714286  C 10.7142857142857 4.46986607142857  10.400390625 3.71233258928571  9.77260044642857 3.08454241071429  C 9.14481026785714 2.45675223214286  8.38727678571428 2.14285714285714  7.5 2.14285714285714  C 6.61272321428571 2.14285714285714  5.85518973214286 2.45675223214286  5.22739955357143 3.08454241071429  C 4.599609375 3.71233258928571  4.28571428571429 4.46986607142857  4.28571428571429 5.35714285714286  C 4.28571428571429 6.24441964285714  4.599609375 7.001953125  5.22739955357143 7.62974330357143  C 5.85518973214286 8.25753348214286  6.61272321428571 8.57142857142857  7.5 8.57142857142857  C 8.38727678571428 8.57142857142857  9.14481026785714 8.25753348214286  9.77260044642857 7.62974330357143  Z M 14.4056919642857 4.58705357142857  C 14.8018973214286 5.51339285714286  15 6.484375  15 7.5  C 15 8.515625  14.8018973214286 9.48521205357143  14.4056919642857 10.4087611607143  C 14.0094866071429 11.3323102678571  13.4779575892857 12.1303013392857  12.8111049107143 12.802734375  C 12.1442522321429 13.4751674107143  11.34765625 14.0094866071429  10.4213169642857 14.4056919642857  C 9.49497767857143 14.8018973214286  8.52120535714286 15  7.5 15  C 6.484375 15  5.51339285714286 14.8018973214286  4.58705357142857 14.4056919642857  C 3.66071428571429 14.0094866071429  2.86272321428571 13.4765625  2.19308035714286 12.8069196428571  C 1.5234375 12.1372767857143  0.990513392857143 11.3392857142857  0.594308035714286 10.4129464285714  C 0.198102678571429 9.48660714285714  0 8.515625  0 7.5  C 0 6.484375  0.198102678571429 5.51339285714286  0.594308035714286 4.58705357142857  C 0.990513392857143 3.66071428571428  1.5234375 2.86272321428571  2.19308035714286 2.19308035714286  C 2.86272321428571 1.5234375  3.66071428571429 0.990513392857142  4.58705357142857 0.594308035714285  C 5.51339285714286 0.198102678571428  6.484375 0  7.5 0  C 8.515625 0  9.48660714285714 0.198102678571428  10.4129464285714 0.594308035714285  C 11.3392857142857 0.990513392857142  12.1372767857143 1.5234375  12.8069196428571 2.19308035714286  C 13.4765625 2.86272321428571  14.0094866071429 3.66071428571428  14.4056919642857 4.58705357142857  Z " fill-rule="nonzero" fill="#999999" stroke="none" transform="matrix(1 0 0 1 15 28 )" />
  </g>
</svg>