<?xml version="1.0" encoding="utf-8"?>
<svg version="1.1" xmlns:xlink="http://www.w3.org/1999/xlink" width="16px" height="16px" viewBox="1064 545  16 16" xmlns="http://www.w3.org/2000/svg">
  <path d="M 1072 545  C 1076.48 545  1080 548.52  1080 553  C 1080 557.48  1076.48 561  1072 561  C 1067.52 561  1064 557.48  1064 553  C 1064 548.52  1067.52 545  1072 545  Z " fill-rule="nonzero" fill="#f0f0f0" stroke="none" />
  <path d="M 1072 545.5  C 1076.2 545.5  1079.5 548.8  1079.5 553  C 1079.5 557.2  1076.2 560.5  1072 560.5  C 1067.8 560.5  1064.5 557.2  1064.5 553  C 1064.5 548.8  1067.8 545.5  1072 545.5  Z " stroke-width="1" stroke="#8c8c8c" fill="none" />
  <path d="M 1072 557  C 1069.76 557  1068 555.24  1068 553  C 1068 550.76  1069.76 549  1072 549  C 1074.24 549  1076 550.76  1076 553  C 1076 555.24  1074.24 557  1072 557  " fill-rule="nonzero" fill="#8c8c8c" stroke="none" />
</svg>