<?xml version="1.0" encoding="utf-8"?>
<svg version="1.1" xmlns:xlink="http://www.w3.org/1999/xlink" width="16px" height="16px" viewBox="1064 435  16 16" xmlns="http://www.w3.org/2000/svg">
  <path d="M 1072 435  C 1076.48 435  1080 438.52  1080 443  C 1080 447.48  1076.48 451  1072 451  C 1067.52 451  1064 447.48  1064 443  C 1064 438.52  1067.52 435  1072 435  Z " fill-rule="nonzero" fill="#ffffff" stroke="none" />
  <path d="M 1072 435.5  C 1076.2 435.5  1079.5 438.8  1079.5 443  C 1079.5 447.2  1076.2 450.5  1072 450.5  C 1067.8 450.5  1064.5 447.2  1064.5 443  C 1064.5 438.8  1067.8 435.5  1072 435.5  Z " stroke-width="1" stroke="#8c8c8c" fill="none" />
  <path d="M 1072 447  C 1069.76 447  1068 445.24  1068 443  C 1068 440.76  1069.76 439  1072 439  C 1074.24 439  1076 440.76  1076 443  C 1076 445.24  1074.24 447  1072 447  " fill-rule="nonzero" fill="#8c8c8c" stroke="none" />
</svg>