<?xml version="1.0" encoding="utf-8"?>
<svg version="1.1" xmlns:xlink="http://www.w3.org/1999/xlink" width="16px" height="16px" viewBox="1064 401  16 16" xmlns="http://www.w3.org/2000/svg">
  <path d="M 1072 401  C 1076.48 401  1080 404.52  1080 409  C 1080 413.48  1076.48 417  1072 417  C 1067.52 417  1064 413.48  1064 409  C 1064 404.52  1067.52 401  1072 401  Z " fill-rule="nonzero" fill="#f0f0f0" stroke="none" />
  <path d="M 1072 401.5  C 1076.2 401.5  1079.5 404.8  1079.5 409  C 1079.5 413.2  1076.2 416.5  1072 416.5  C 1067.8 416.5  1064.5 413.2  1064.5 409  C 1064.5 404.8  1067.8 401.5  1072 401.5  Z " stroke-width="1" stroke="#8c8c8c" fill="none" />
  <path d="M 1072 413  C 1069.76 413  1068 411.24  1068 409  C 1068 406.76  1069.76 405  1072 405  C 1074.24 405  1076 406.76  1076 409  C 1076 411.24  1074.24 413  1072 413  " fill-rule="nonzero" fill="#8c8c8c" stroke="none" />
</svg>